**ABCDEFGHIJKLMNOPQRSTUVWXYZabcdefghijklmnopqrstuvwxyz**************************
**PARASOLID !"#$%&'()*+,-./:;<=>?@[\]^_`{|}~0123456789**************************
**PART1;
MC=x86;
MC_MODEL=x86 Family 6 Model 42 Stepping 7, GenuineIntel;
MC_ID=unknown;
OS=Windows_NT;
OS_RELEASE=unknown;
FRU=Parasolid Version 21.0, build 263,  9- 8-2009;
APPL=SolidWorks 2010-2009286;
SITE=;
USER=unknown;
FORMAT=text;
GUISE=transmit;
KEY=V-102-1A4;
FILE=V-102-1A4.x_t;
DATE=Mon Nov 24 13:22:45 2014;
**PART2;
SCH=SCH_2100263_20000;
USFLD_SIZE=0;
**PART3;
**END_OF_HEADER*****************************************************************
T51 : TRANSMIT FILE created by modeller version 210026317 SCH_1701000_171060 10
 1 5 2 3 0 0 0 0 0 1e3 1e-8 0 0 0 1 0 1 4 81 1 2 5 5 1 0 0 0 0 0 70 3 0 4 T1 0 0
 1 20 1 6 6 11 4 3 0 1 7 8 1 9 0 0 0 12 7 419 10 11 0 0 0 0 1e3 1e-8 4 12 0 1 0
 1 1 13 14 15 16 17 18 19 100 8 4 4 0 0 1 0 0 0 1 0 0 0 1 -.0086 .0028 -2e-4 1 1
 ?11 9 1 0 1 12 20 1 0 4 0 0 12 12 2055 21 22 0 0 0 0 1e3 1e-8 9 23 7 1 0 1 1 24
 25 26 27 28 29 30 100 20 2 9 0 0 1 0 0 0 1 0 0 0 1 0 0 0 1 0 ?81 1 21 2055 5 12
 0 0 0 0 31 70 22 0 4 T12 0 0 3 20 1 32 32 13 24 1319 0 12 0 33 0 0 34 0 50 25 1
390 0 35 36 0 0 +-.022898212002 -.00875 -.00515 0 1 0 0 0 1 31 26 1462 0 37 38 0
 0 --.0207 .002428067794 -.00235 0 0 -1 -1 0 0 .002 29 27 1464 0 39 40 0 -.0221
 .003856353479854285 -.00235 19 28 1320 0 12 34 0 41 V16 29 22 0 ?42 0 43 44 0 0
 12 18 30 18 0 45 0 46 47 ?12 17 45 0 48 42 49 30 50 43 0 51 +18 46 6 0 52 30 53
 54 ?12 29 47 1393 0 30 55 54 -.02150178799758265 -.00875000000010312 .00515 29
 55 1292 0 56 57 47 -.02209999999541665 .0028 -.002350000000833335 29 54 1396 0
 46 47 58 -.02150178799758265 -.00875000000010312 -.00515 29 58 1406 0 59 54 60
 -.0215017879977218 -.01184999999995956 .00515 18 59 88 0 50 61 62 58 ?12 29 60
 1409 0 62 58 63 -.02289821200209945 -.01185000000004008 .00515 18 62 92 0 64 59
 65 60 ?12 29 63 1410 0 53 60 66 -.0228982120020942 -.00875 .00515 18 53 53 0 67
 46 61 63 ?12 29 66 1413 0 65 63 68 .0028 -574289673772084e-27 .00515 18 65 93 0
 69 62 70 66 ?12 29 68 1414 0 71 66 72 2871444890590165e-28 .0028 .00515 18 71 1
00 0 73 74 75 68 ?12 29 72 1417 0 76 68 77 538565719798712e-27 -.0131 .00515 18
 76 95 0 78 70 79 72 ?12 29 77 1418 0 70 72 80 .0028 -.0103 .00515 18 70 94 0 81
 65 76 77 ?12 29 80 1421 0 82 77 83 -.025 -.01030000000025142 .00515 18 82 97 0
 84 79 85 80 ?12 29 83 1422 0 79 80 86 -.0222 -.0131 .00515 18 79 96 0 87 76 82
 83 ?12 29 86 1425 0 74 83 88 -.02219999999971285 .0028 .00515 18 74 99 0 89 85
 71 86 ?12 29 88 1426 0 85 86 90 -.025 0 .00515 18 85 98 0 91 82 74 88 ?12 29 90
 1430 0 75 88 92 -.02150178800127375 -.01185000000155956 -.00515 18 75 166 0 93
 71 94 90 ?12 29 92 1439 0 94 90 95 -.02289821199854755 -.01185000000164008 -.00
515 18 94 211 0 96 75 97 92 ?12 29 95 1440 0 61 92 98 -.0228982120020942 -.00875
 -.00515 18 61 54 0 99 53 59 95 ?12 29 98 1443 0 100 95 101 -.02219999999971285
 .0028 -.00515 18 100 216 0 102 97 103 98 ?12 29 101 1444 0 97 98 104 -.025 -797
663026900049e-33 -.00515 18 97 215 0 105 94 100 101 ?12 29 104 1447 0 106 101 10
7 .0028 -57429047143511e-26 -.00515 18 106 218 0 108 103 109 104 ?12 29 107 1448
 0 103 104 110 2871444890590165e-28 .0028 -.00515 18 103 217 0 111 100 106 107 ?
12 29 110 1451 0 112 107 113 538565719798712e-27 -.0131 -.00515 18 112 220 0 114
 109 115 110 ?12 29 113 1452 0 109 110 116 .0028 -.0103 -.00515 18 109 219 0 117
 106 112 113 ?12 29 116 1455 0 118 113 119 -.025 -.01030000000025142 -.00515 18
 118 222 0 120 115 121 116 ?12 29 119 1456 0 115 116 122 -.0222 -.0131 -.00515 1
8 115 221 0 123 112 118 119 ?12 29 122 1459 0 124 119 125 -.0193 .00385635347985
4285 .00195 18 124 923 0 126 127 128 122 ?12 29 125 1460 0 128 122 40 -.0221 .00
3856353479854285 .00195 18 128 942 0 129 124 39 125 ?12 29 40 1463 0 127 125 27
 -.0193 .003856353479854285 -.00235 18 127 922 0 130 131 124 40 ?12 17 130 0 132
 133 134 127 135 37 0 136 -18 131 894 0 137 138 127 139 ?12 17 137 0 140 141 142
 131 143 144 0 145 +18 138 893 0 146 147 131 148 ?12 29 139 904 0 131 148 149 -.
00968 -.016 .002325 29 148 905 0 138 150 139 -.00968 -.016 -.002425 29 149 1155
 0 151 139 152 -78e-5 -.016 -.002425 18 151 1139 0 153 39 154 149 ?12 29 152 115
4 0 154 149 155 -78e-5 -.015500000000075 -.002425 18 154 1140 0 156 151 157 152
 ?12 29 155 1183 0 157 152 158 -78e-5 -.016 .002325 18 157 1169 0 159 154 160 15
5 ?12 29 158 1182 0 160 155 161 -78e-5 -.015500000000075 .002325 18 160 1170 0 1
62 157 0 158 ?12 29 161 1232 0 163 158 164 -.0193 .0028 -.00235 18 163 648 0 165
 56 166 161 206155281280883e-22 12 29 164 1269 0 167 161 57 -.0192999999959 .002
8 .00194999999955 18 167 645 0 168 169 170 164 206195296242343e-22 12 29 57 1276
 0 170 164 55 -.022099999998625 .0028 .0019499999982 18 170 646 0 171 167 56 57
 206177255946701e-22 12 17 171 0 172 173 129 170 174 175 0 176 +18 56 647 0 177
 170 163 55 2062176165765735e-23 12 17 177 0 178 179 180 56 134 181 0 182 -15 17
8 959 0 177 183 0 17 179 0 178 174 177 170 182 184 0 0 +17 180 0 178 177 174 39
 185 186 0 134 -17 134 0 132 130 187 39 177 181 0 0 +16 181 961 0 ?134 186 37 18
8 0 0 12 17 182 0 189 165 176 56 179 184 0 187 -15 189 635 0 176 190 191 17 165
 0 189 192 182 163 187 193 0 133 -17 176 0 189 182 192 170 173 194 0 179 -16 184
 639 0 ?179 194 193 195 0 0 12 17 187 0 132 134 133 56 165 193 0 0 +15 132 979 0
 187 196 0 17 133 0 132 187 130 163 136 197 0 198 +16 193 640 0 ?187 184 199 200
 0 0 12 16 199 681 0 ?64 193 201 202 0 0 12 133 200 1233 0 193 203 204 0 +204 -.
0193 .0028 -.002350000002 -.02209999999725 .0028 -.002350000002 .0082 .010999999
99725 30 203 1231 0 12 205 200 206 +-.0193 .00332817674 -.00235 0 -1 0 30 204 12
34 0 12 200 207 208 +-.0111 .0028 -.002350000002 -1 0 0 133 207 1235 0 209 204 2
10 0 +210 -.0192999999918 .0028 .0019499999991 -.0192999999918 .0028 -.00235 -.0
019499999991 .00235 141 208 200 208 208 204 16 209 637 0 ?198 211 194 207 0 0 12
 30 210 1236 0 12 207 212 213 +-.0192999999918 .0028 0 0 0 -1 133 212 1266 0 214
 210 215 0 +215 -.0193 .0028 .00195 -.0193 .003856353479854285 .00195 -.00052817
674 .000528176739854287 141 213 207 213 213 210 16 214 920 0 ?216 217 175 212 0
 0 12 30 215 1267 0 12 212 218 219 +-.0193 .00332817674 .00195 0 1 0 133 218 127
0 0 194 215 220 0 +220 -.02209999999725 .0028 .0019499999964 -.0192999999959 .00
28 .0019499999964 -.01099999999725 -.0081999999959 141 219 212 219 219 215 16 19
4 638 0 ?173 209 184 218 0 0 12 30 220 1271 0 12 218 221 222 +-.0111 .0028 .0019
499999964 1 0 0 30 221 1275 0 186 220 195 0 +-.0221 .00385635348 -2e-4 0 0 1 141
 222 218 222 222 220 16 186 960 0 ?185 223 181 221 0 0 12 133 195 1277 0 184 221
 224 0 +224 -.022099999989 .0028 -.0023500000005 -.022099999989 .0028 .001949999
9982 -.0023500000005 .0019499999982 30 224 1278 0 12 195 188 225 +-.022099999989
 .0028 0 0 0 1 133 188 1289 0 181 224 226 0 +226 -.0221 .0028 -.00235 -.0221 .00
3856353479854285 -.00235 -.00052817674 .000528176739854286 141 225 195 225 225 2
24 30 226 1290 0 12 188 227 228 +-.0221 .00332817674 -.00235 0 1 0 30 227 1314 0
 229 226 230 0 +-78e-5 -.01575 -.002425 0 -1 0 141 228 188 228 228 226 16 229 13
02 0 ?153 231 232 227 0 0 12 30 230 1312 0 232 227 233 0 +-78e-5 -.01575 .002325
 0 1 0 16 232 1304 0 ?162 229 0 230 0 0 12 31 233 1392 0 43 230 234 0 +-.0222 -.
0103 .00515 0 -255106393526001e-30 1 0 -1 -255106393526001e-30 .0017 16 43 19 0
 ?45 29 235 233 0 0 12 31 234 1395 0 235 233 236 0 --.0222 -.0103 -.00515 0 -255
106393526001e-30 1 0 -1 -255106393526001e-30 .0017 16 235 9 0 ?93 43 237 234 0 0
 12 31 236 1398 0 238 234 239 0 -0 -2881879322993725e-33 .00515 0 -2797941090285
17e-30 1 0 -1 -279794109028517e-30 .00155 16 238 71 0 ?240 241 242 236 0 0 12 31
 239 1408 0 242 236 243 0 --.0222 -.0103 .00515 0 -255106393526001e-30 1 0 -1 -2
55106393526001e-30 .0017 16 242 77 0 ?67 238 244 239 0 0 12 31 243 1412 0 244 23
9 245 0 -0 -2755404817760625e-59 .00515 0 -1548860246407865e-31 -1 0 1 -15488602
46407865e-31 .0028 16 244 78 0 ?246 242 247 243 0 0 12 31 245 1416 0 248 243 249
 0 -0 -.0103 .00515 0 -1548860246407865e-31 -1 0 1 -1548860246407865e-31 .0028 1
6 248 80 0 ?81 247 250 245 0 0 12 31 249 1420 0 251 245 252 0 --.0222 -.0103 .00
515 0 -1548860246407865e-31 -1 0 1 -1548860246407865e-31 .0028 16 251 82 0 ?87 2
50 253 249 0 0 12 31 252 1424 0 254 249 255 0 --.0222 671711057612736e-49 .00515
 0 -1548860246407865e-31 -1 0 1 -1548860246407865e-31 .0028 16 254 84 0 ?91 253
 256 252 0 0 12 31 255 1432 0 257 252 258 0 -0 -4977505477245e-56 -.00515 0 -279
794109028517e-30 1 0 -1 -279794109028517e-30 .00155 16 257 193 0 ?259 260 261 25
5 0 0 12 31 258 1438 0 261 255 262 0 --.0222 -.0103 -.00515 0 -255106393526001e-
30 1 0 -1 -255106393526001e-30 .0017 16 261 196 0 ?99 257 263 258 0 0 12 31 262
 1442 0 264 258 265 0 --.0222 -15953260538001e-31 -.00515 0 -1548860246407865e-3
1 -1 0 1 -1548860246407865e-31 .0028 16 264 201 0 ?266 267 268 262 0 0 12 31 265
 1446 0 269 262 270 0 -0 -15953260538001e-31 -.00515 0 -1548860246407865e-31 -1
 0 1 -1548860246407865e-31 .0028 16 269 203 0 ?271 268 272 265 0 0 12 31 270 145
0 0 273 265 274 0 -0 -.0103 -.00515 0 -1548860246407865e-31 -1 0 1 -154886024640
7865e-31 .0028 16 273 205 0 ?275 272 276 270 0 0 12 31 274 1454 0 277 270 38 0 -
-.0222 -.0103 -.00515 0 -1548860246407865e-31 -1 0 1 -1548860246407865e-31 .0028
 16 277 207 0 ?278 276 279 274 0 0 12 31 38 1458 0 223 274 26 0 --.0207 .0024280
67794 .00195 0 0 -1 -1 0 0 .002 16 223 939 0 ?129 175 186 38 0 0 12 17 129 0 172
 171 216 128 126 223 0 185 +16 175 938 0 ?171 214 223 280 0 0 12 133 280 949 0 1
75 281 282 0 +282 -.0221 .003856353479854285 .00195 -.0221 .0028 .00195 -.000237
4353793542855 .0008189181005 30 281 899 0 283 284 280 0 +-.00968 -.01455 .002325
 0 -1 0 30 282 948 0 12 280 285 286 +-.0221 .0036189181005 .00195 0 -1 0 30 285
 1018 0 287 282 288 0 +.0028 -.00895 .002325 0 1 0 141 286 280 286 286 282 16 28
7 1006 0 ?289 37 290 285 0 0 12 30 288 1016 0 290 285 291 0 +.0128 -.00895 .0023
25 0 -1 0 16 290 1008 0 ?292 287 293 288 0 0 12 30 291 1038 0 293 288 294 0 +.01
28 -.00895 -.002425 0 1 0 16 293 1028 0 ?295 290 296 291 0 0 12 30 294 1060 0 29
6 291 297 0 +.0028 -.00895 -.002425 0 -1 0 16 296 1048 0 ?298 293 299 294 0 0 12
 30 297 1081 0 299 294 300 0 +.0028 -.00295 .002325 0 1 0 16 299 1069 0 ?301 296
 302 297 0 0 12 30 300 1079 0 302 297 303 0 +.0128 -.00295 .002325 0 -1 0 16 302
 1071 0 ?304 299 305 300 0 0 12 30 303 1101 0 305 300 306 0 +.0128 -.00295 -.002
425 0 1 0 16 305 1091 0 ?307 302 308 303 0 0 12 30 306 1123 0 308 303 309 0 +.00
28 -.00295 -.002425 0 -1 0 16 308 1111 0 ?310 305 311 306 0 0 12 30 309 1149 0 3
11 306 312 0 +-.00523 -.016 -.002425 -1 0 0 16 311 1133 0 ?146 308 313 309 0 0 1
2 30 312 1147 0 313 309 314 0 +-.00523 -.0155000000003 -.002425 1 0 0 16 313 113
5 0 ?315 311 316 312 0 0 12 30 314 1145 0 316 312 317 0 +-.00523 -.0131 -.002425
 1 0 0 16 316 1137 0 ?318 313 319 314 0 0 12 30 317 1179 0 319 314 320 0 +-.0052
3 -.0131 .002325 1 0 0 16 319 1161 0 ?321 316 144 317 0 0 12 30 320 1177 0 144 3
17 322 0 +-.00523 -.016 .002325 -1 0 0 16 144 1163 0 ?137 319 323 320 0 0 12 30
 322 1175 0 323 320 324 0 +-.00523 -.0155000000003 .002325 1 0 0 16 323 1165 0 ?
325 144 326 322 0 0 12 30 324 1199 0 326 322 327 0 +-78e-5 -.0155 -5e-5 0 0 1 16
 326 1193 0 ?328 323 231 324 0 0 12 30 327 1222 0 231 324 329 0 +-78e-5 -.016 -5
e-5 0 0 -1 16 231 1212 0 ?330 326 229 327 0 0 12 30 329 1229 0 217 327 205 0 +-.
0193 .00385635348 -2e-4 0 0 -1 16 217 919 0 ?331 197 214 329 0 0 12 133 205 1230
 0 197 329 203 0 +203 -.0193 .003856353479854285 -.00235 -.0193 .0028 -.00235 -.
000528176739854287 .00052817674 16 197 918 0 ?133 283 217 205 0 0 12 16 283 891
 0 ?332 333 197 281 0 0 12 17 332 0 334 143 335 131 336 283 0 0 +16 333 890 0 ?1
41 337 283 284 0 0 12 17 141 0 140 338 137 138 145 333 0 0 +16 337 889 0 ?339 34
0 333 341 0 0 12 30 284 900 0 333 341 281 0 +-.00968 -.016 -5e-5 0 0 -1 30 341 9
01 0 337 342 284 0 +-.00968 -.01455 -.002425 0 1 0 30 342 877 0 340 343 341 0 +-
.00918 -.0155 -5e-5 0 0 1 16 340 871 0 ?344 345 337 342 0 0 12 30 343 878 0 345
 346 342 0 +-.00918 -.0143 .002325 0 1 0 16 345 870 0 ?347 348 340 343 0 0 12 30
 346 880 0 348 349 343 0 +-.00918 -.0143 -.002425 0 -1 0 16 348 868 0 ?350 351 3
45 346 0 0 12 30 349 852 0 351 352 346 0 +.0078 -.0032 .002325 1 0 0 16 351 846
 0 ?353 354 348 349 0 0 12 30 352 853 0 354 355 349 0 +.0128 -.0032 -5e-5 0 0 -1
 16 354 845 0 ?356 357 351 352 0 0 12 30 355 854 0 357 358 352 0 +.0078 -.0032 -
.002425 -1 0 0 16 357 844 0 ?359 360 354 355 0 0 12 30 358 831 0 360 361 355 0 +
.0078 -.0027 -.002425 1 0 0 16 360 825 0 ?362 363 357 358 0 0 12 30 361 832 0 36
3 364 358 0 +.0128 -.0027 -5e-5 0 0 1 16 363 824 0 ?365 366 360 361 0 0 12 30 36
4 833 0 366 367 361 0 +.0078 -.0027 .002325 -1 0 0 16 366 823 0 ?368 369 363 364
 0 0 12 30 367 810 0 369 370 364 0 +.0078 -.0092 .002325 1 0 0 16 369 804 0 ?371
 372 366 367 0 0 12 30 370 811 0 372 373 367 0 +.0128 -.0092 -5e-5 0 0 -1 16 372
 803 0 ?374 375 369 370 0 0 12 30 373 812 0 375 376 370 0 +.0078 -.0092 -.002425
 -1 0 0 16 375 802 0 ?377 378 372 373 0 0 12 30 376 789 0 378 379 373 0 +.0078 -
.0087 -.002425 1 0 0 16 378 783 0 ?380 381 375 376 0 0 12 30 379 790 0 381 382 3
76 0 +.0128 -.0087 -5e-5 0 0 1 16 381 782 0 ?383 201 378 379 0 0 12 30 382 791 0
 201 202 379 0 +.0078 -.0087 .002325 -1 0 0 16 201 781 0 ?384 199 381 382 0 0 12
 30 202 701 0 199 385 382 0 +-.0222 -.01185 .00515 -1 0 0 30 385 628 0 211 386 2
02 0 --.0221999999994257 .0028 0 0 0 -1 16 211 608 0 ?387 388 209 385 0 0 12 30
 386 597 0 388 389 385 0 +-.025 0 0 0 0 1 16 388 580 0 ?390 391 211 386 0 0 12 3
0 389 571 0 391 392 386 0 --.025 -.01030000000050284 0 0 0 -1 16 391 551 0 ?393
 394 388 389 0 0 12 30 392 540 0 394 395 389 0 +-.0222 -.0131 0 0 0 1 16 394 511
 0 ?396 397 391 392 0 0 12 30 395 527 0 397 398 392 0 +-.0096799999992 -.0131 0
 0 0 -1 16 397 509 0 ?399 400 394 395 0 0 12 30 398 529 0 400 401 395 0 +-.00918
00000108 -.0131 0 0 0 1 16 400 507 0 ?402 403 397 398 0 0 12 30 401 497 0 403 40
4 398 0 -1077131439597422e-27 -.0131 0 0 0 -1 16 403 477 0 ?405 406 400 401 0 0
 12 30 404 466 0 406 407 401 0 +.0028 -.0103 0 0 0 1 16 406 425 0 ?408 409 403 4
04 0 0 12 30 407 445 0 409 410 404 0 +.0028 -.0032000000036 0 0 0 -1 16 409 423
 0 ?411 412 406 407 0 0 12 30 410 447 0 412 413 407 0 +.0028 -.0026999999966 0 0
 0 1 16 412 421 0 ?414 415 409 410 0 0 12 30 413 449 0 415 416 410 0 +.0028 -.00
91999999949 0 0 0 -1 16 415 419 0 ?417 418 412 413 0 0 12 30 416 451 0 418 419 4
13 0 +.0028 -.0086999999982 0 0 0 1 16 418 417 0 ?420 421 415 416 0 0 12 30 419
 408 0 421 422 416 0 -574288978118033e-27 .0028 0 0 0 1 16 421 388 0 ?111 423 41
8 419 0 0 12 30 422 406 0 423 424 419 0 -.0028 -1148579199685854e-27 0 0 0 -1 16
 423 386 0 ?425 279 421 422 0 0 12 30 424 379 0 279 426 422 0 --.022898212002010
5 -.01185000000008016 0 0 0 1 16 279 285 0 ?96 277 423 424 0 0 12 30 426 372 0 2
60 427 424 0 --.02150178799763205 -.01184999999991914 0 0 0 -1 16 260 162 0 ?49
 256 257 426 0 0 12 30 427 277 0 428 429 426 0 +-.022898212002 -.00875 0 0 0 1 1
6 428 50 0 ?430 237 241 427 0 0 12 30 429 273 0 241 431 427 0 +-.0222 -.00875 -.
00515 -1 0 0 16 241 51 0 ?432 428 238 429 0 0 12 30 431 224 0 276 433 429 0 +-.0
111 -.0131 -.00515 1 0 0 16 276 206 0 ?434 273 277 431 0 0 12 30 433 226 0 272 4
35 431 0 +.0028 -.00515 -.00515 0 1 0 16 272 204 0 ?436 269 273 433 0 0 12 30 43
5 228 0 268 437 433 0 +-.0111 .0028 -.00515 -1 0 0 16 268 202 0 ?438 264 269 435
 0 0 12 30 437 230 0 267 439 435 0 +-.025 -.00515 -.00515 0 -1 0 16 267 200 0 ?4
40 263 264 437 0 0 12 30 439 232 0 263 44 437 0 +-.0111 -.0118500000032 -.00515
 -1 0 0 16 263 197 0 ?441 261 267 439 0 0 12 30 44 155 0 29 442 439 0 --.0215017
879973537 -.00875000000020624 0 0 0 1 30 442 153 0 237 443 44 0 +-.0222 -.00875
 .00515 1 0 0 16 237 49 0 ?51 235 428 442 0 0 12 30 443 102 0 256 444 442 0 +-.0
111 .0028 .00515 -1 0 0 16 256 85 0 ?89 254 260 443 0 0 12 30 444 104 0 253 445
 443 0 +-.025 -.00515 .00515 0 -1 0 16 253 83 0 ?84 251 254 444 0 0 12 30 445 10
6 0 250 446 444 0 +-.0111 -.0131 .00515 1 0 0 16 250 81 0 ?78 248 251 445 0 0 12
 30 446 108 0 247 0 445 0 +.0028 -.00515 .00515 0 1 0 16 247 79 0 ?69 244 248 44
6 0 0 12 17 69 0 447 246 81 65 448 247 0 425 +15 447 70 0 69 449 0 17 246 0 447
 89 69 71 450 244 0 451 +17 81 0 447 69 78 70 452 248 0 408 +17 448 0 453 117 42
5 70 69 247 0 0 -17 425 0 453 448 436 65 108 423 0 450 +15 453 415 0 117 454 0 1
7 436 0 453 425 117 106 455 272 0 0 +17 108 0 456 271 450 106 425 423 0 457 -17
 450 0 456 108 73 65 246 244 0 0 -15 456 384 0 108 458 0 17 73 0 456 450 271 71
 111 421 0 246 -17 271 0 456 73 108 103 457 269 0 0 +17 111 0 191 438 451 103 73
 421 0 459 +15 191 636 0 387 190 0 17 438 0 191 387 111 100 459 268 0 0 +17 451
 0 191 111 387 71 89 256 0 0 -17 459 0 460 457 461 103 438 268 0 271 -15 460 192
 0 461 462 0 17 457 0 460 455 459 106 271 269 0 436 -17 461 0 460 459 463 100 26
6 264 0 438 -17 463 0 460 461 464 97 440 267 0 266 -17 266 0 465 390 102 97 461
 264 0 0 +15 465 606 0 102 466 0 17 390 0 465 467 266 85 105 388 0 468 +17 102 0
 465 266 467 100 387 211 0 461 -17 467 0 465 102 390 74 91 254 0 0 -17 387 0 191
 451 438 74 102 211 0 467 +17 91 0 447 84 89 85 467 254 0 390 +17 84 0 447 87 91
 82 468 253 0 393 +17 89 0 447 91 246 74 451 256 0 387 +17 87 0 447 78 84 79 469
 251 0 396 +17 468 0 470 105 393 85 84 253 0 0 -17 393 0 470 468 440 82 120 391
 0 469 +15 470 578 0 105 471 0 17 440 0 470 393 105 118 463 267 0 0 +17 120 0 47
2 278 469 118 393 391 0 464 -17 469 0 472 120 396 82 87 251 0 0 -15 472 549 0 12
0 473 0 17 396 0 472 469 278 79 123 394 0 474 +17 278 0 472 396 120 115 464 277
 0 0 +17 123 0 475 434 474 115 396 394 0 476 -17 474 0 475 123 405 79 78 250 0 0
 -15 475 505 0 123 477 0 17 405 0 475 474 434 76 114 403 0 452 +17 78 0 447 81 8
7 76 474 250 0 405 +17 434 0 475 405 123 112 476 276 0 0 +17 114 0 478 275 452 1
12 405 403 0 479 -17 452 0 478 114 408 76 81 248 0 0 -15 478 475 0 114 480 0 17
 408 0 478 452 275 70 117 406 0 448 +17 275 0 478 408 114 109 479 273 0 0 +17 11
7 0 453 436 448 109 408 406 0 455 -17 455 0 460 479 457 109 436 272 0 275 -17 47
9 0 460 476 455 112 275 273 0 434 -17 476 0 460 464 479 115 434 276 0 278 -17 46
4 0 460 463 476 118 278 277 0 440 -14 480 474 481 1e-8 454 477 478 24 482 -0 0 4
77 454 41 81 1 481 2046 483 480 484 0 485 486 487 14 454 412 486 1e-8 458 480 48
8 24 489 -0 0 480 458 41 14 477 503 485 1e-8 480 473 490 24 491 -0 0 473 480 41
 51 482 484 0 480 492 493 0 -0 -.0103 .00515 0 -1548860246407865e-31 -1 .0028 0
 1 -1548860246407865e-31 13 41 3 0 0 0 0 0 0 28 494 14 494 2 495 1e-8 0 35 48 24
 496 +0 0 35 0 41 81 1 495 2054 483 494 497 0 498 0 499 14 35 47 498 1e-8 494 44
9 500 24 25 -0 0 449 494 41 15 48 7 0 45 494 0 51 496 44 0 494 0 501 0 --.0222 -
.0103 -.00515 0 -255106393526001e-30 1 .0017 0 -1 -255106393526001e-30 51 501 29
1 0 502 496 503 0 --.0222 -.0103 -.00515 0 -255106393526001e-30 1 .0017 0 -1 -25
5106393526001e-30 14 502 281 504 1e-8 462 505 506 24 501 +0 0 505 462 41 51 503
 321 0 505 501 492 0 -0 0 -.00515 0 -279794109028517e-30 1 .00155 0 -1 -27979410
9028517e-30 14 505 311 507 1e-8 502 458 508 24 503 +0 0 458 502 41 51 492 393 0
 458 503 482 0 -0 0 .00515 0 -1548860246407865e-31 -1 .0028 0 1 -154886024640786
5e-31 14 458 383 509 1e-8 505 454 456 24 492 -0 0 454 505 41 81 1 509 2048 483 4
58 510 0 486 507 511 80 1 483 0 512 8001 0 0 0 0 3 5 0 0 0 FFFFTFTFFFFFFF2 81 1
 510 1958 513 458 0 509 514 515 516 81 1 486 2047 483 454 517 0 481 509 518 81 1
 507 2049 483 505 514 0 509 504 519 83 3 511 .752941176470588 .752941176470588 .
752941176470588 81 1 514 1956 513 505 0 507 520 510 521 81 1 504 2050 483 502 52
0 0 507 522 523 83 3 519 .752941176470588 .752941176470588 .752941176470588 81 1
 520 1954 513 502 0 504 524 514 525 81 1 522 2051 483 462 515 0 504 526 527 83 3
 523 .752941176470588 .752941176470588 .752941176470588 14 462 189 522 1e-8 449
 502 528 24 529 -0 0 502 449 41 81 1 515 1960 513 462 0 522 510 530 531 81 1 526
 2052 483 449 530 0 522 498 532 83 3 527 .752941176470588 .752941176470588 .7529
41176470588 14 449 67 526 1e-8 35 462 533 24 36 +0 0 462 35 41 81 1 530 1962 513
 449 0 526 515 534 535 81 1 498 2053 483 35 524 0 526 495 536 83 3 532 .75294117
6470588 .752941176470588 .752941176470588 81 1 524 1952 513 35 0 498 497 520 537
 83 3 536 .752941176470588 .752941176470588 .752941176470588 80 1 513 538 539 90
00 1 1 1 1 1 1 1 1 0 FFFFTFTFFFFFFF1 81 1 497 1950 513 494 0 495 540 524 541 82
 1 537 999999 81 1 540 1948 513 477 0 485 517 497 542 82 1 541 999999 81 1 485 2
045 483 477 540 0 543 481 544 81 1 517 1946 513 454 0 486 484 540 545 82 1 542 9
99999 81 1 484 1944 513 480 0 481 0 517 546 82 1 545 999999 82 1 546 999999 81 1
 543 2044 483 473 534 0 547 485 548 83 3 544 .752941176470588 .752941176470588 .
752941176470588 14 473 548 543 1e-8 477 471 472 24 493 -0 0 471 477 41 81 1 534
 1964 513 473 0 543 530 549 550 81 1 547 2043 483 471 549 0 551 543 552 83 3 548
 .752941176470588 .752941176470588 .752941176470588 14 471 577 547 1e-8 473 466
 470 24 553 -0 0 466 473 41 81 1 549 1966 513 471 0 547 534 554 555 81 1 551 204
2 483 466 554 0 556 547 557 83 3 552 .752941176470588 .752941176470588 .75294117
6470588 14 466 605 551 1e-8 471 190 465 24 558 -0 0 190 471 41 81 1 554 1968 513
 466 0 551 549 559 560 81 1 556 2041 483 190 559 0 561 551 562 83 3 557 .7529411
76470588 .752941176470588 .752941176470588 14 190 634 556 1e-8 466 563 189 24 56
4 -0 0 563 466 41 81 1 559 1970 513 190 0 556 554 565 566 81 1 561 2040 483 563
 565 0 567 556 568 83 3 562 .752941176470588 .752941176470588 .752941176470588 1
4 563 679 561 1e-8 190 569 570 24 571 -0 0 569 190 41 81 1 565 1972 513 563 0 56
1 559 572 573 81 1 567 2039 483 569 572 0 574 561 575 83 3 568 .752941176470588
 .752941176470588 .752941176470588 14 569 777 567 1e-8 563 576 577 24 578 -0 0 5
76 563 41 81 1 572 1974 513 569 0 567 565 579 580 81 1 574 2038 483 576 579 0 58
1 567 582 83 3 575 .749019607843137 .749019607843137 .749019607843137 14 576 798
 574 1e-8 569 583 584 24 585 -0 0 583 569 41 81 1 579 1976 513 576 0 574 572 586
 587 81 1 581 2037 483 583 586 0 588 574 589 83 3 582 .749019607843137 .74901960
7843137 .749019607843137 14 583 819 581 1e-8 576 590 591 24 592 -0 0 590 576 41
 81 1 586 1978 513 583 0 581 579 593 594 81 1 588 2036 483 590 593 0 595 581 596
 83 3 589 .749019607843137 .749019607843137 .749019607843137 14 590 840 588 1e-8
 583 597 598 24 599 -0 0 597 583 41 81 1 593 1980 513 590 0 588 586 600 601 81 1
 595 2035 483 597 600 0 602 588 603 83 3 596 .749019607843137 .749019607843137 .
749019607843137 14 597 865 595 1e-8 590 604 605 24 606 -0 0 604 590 41 81 1 600
 1982 513 597 0 595 593 607 608 81 1 602 2034 483 604 607 0 609 595 610 83 3 603
 .749019607843137 .749019607843137 .749019607843137 14 604 886 602 1e-8 597 611
 612 24 613 -0 0 611 597 41 81 1 607 1984 513 604 0 602 600 614 615 81 1 609 203
3 483 611 614 0 616 602 617 83 3 610 .749019607843137 .749019607843137 .74901960
7843137 14 611 915 609 1e-8 604 618 619 24 620 -0 0 618 604 41 81 1 614 1986 513
 611 0 609 607 621 622 81 1 616 2032 483 618 621 0 623 609 624 83 3 617 .7529411
76470588 .752941176470588 .752941176470588 14 618 935 616 1e-8 611 183 172 24 62
5 +0 0 183 611 41 81 1 621 1988 513 618 0 616 614 626 627 81 1 623 2031 483 183
 626 0 628 616 629 83 3 624 .752941176470588 .752941176470588 .752941176470588 1
4 183 958 623 1e-8 618 196 178 24 630 -0 0 196 618 41 81 1 626 1990 513 183 0 62
3 621 631 632 81 1 628 2030 483 196 631 0 633 623 634 83 3 629 .752941176470588
 .752941176470588 .752941176470588 14 196 978 628 1e-8 183 635 132 24 636 -0 0 6
35 183 41 81 1 631 1992 513 196 0 628 626 637 638 81 1 633 2029 483 635 637 0 63
9 628 640 83 3 634 .752941176470588 .752941176470588 .752941176470588 14 635 100
3 633 1e-8 196 641 642 24 643 -0 0 641 196 41 81 1 637 1994 513 635 0 633 631 64
4 645 81 1 639 2028 483 641 644 0 646 633 647 83 3 640 .749019607843137 .7490196
07843137 .749019607843137 14 641 1024 639 1e-8 635 648 649 24 650 +0 0 648 635 4
1 81 1 644 1996 513 641 0 639 637 651 652 81 1 646 2027 483 648 651 0 653 639 65
4 83 3 647 .749019607843137 .749019607843137 .749019607843137 14 648 1045 646 1e
-8 641 655 656 24 657 -0 0 655 641 41 81 1 651 1998 513 648 0 646 644 658 659 81
 1 653 2026 483 655 658 0 660 646 661 83 3 654 .749019607843137 .749019607843137
 .749019607843137 14 655 1066 653 1e-8 648 662 663 24 664 -0 0 662 648 41 81 1 6
58 2000 513 655 0 653 651 665 666 81 1 660 2025 483 662 665 0 667 653 668 83 3 6
61 .749019607843137 .749019607843137 .749019607843137 14 662 1087 660 1e-8 655 6
69 670 24 671 +0 0 669 655 41 81 1 665 2002 513 662 0 660 658 672 673 81 1 667 2
024 483 669 672 0 674 660 675 83 3 668 .749019607843137 .749019607843137 .749019
607843137 14 669 1108 667 1e-8 662 676 677 24 678 -0 0 676 662 41 81 1 672 2004
 513 669 0 667 665 679 680 81 1 674 2023 483 676 679 0 681 667 682 83 3 675 .749
019607843137 .749019607843137 .749019607843137 14 676 1129 674 1e-8 669 683 684
 24 685 +0 0 683 669 41 81 1 679 2006 513 676 0 674 672 686 687 81 1 681 2022 48
3 683 686 0 688 674 689 83 3 682 .749019607843137 .749019607843137 .749019607843
137 14 683 1158 681 1e-8 676 690 334 24 691 -0 0 690 676 41 81 1 686 2008 513 68
3 0 681 679 692 693 81 1 688 2021 483 690 692 0 694 681 695 83 3 689 .7490196078
43137 .749019607843137 .749019607843137 14 690 1187 688 1e-8 683 696 697 24 698
 -0 0 696 683 41 81 1 692 2010 513 690 0 688 686 699 700 81 1 694 2020 483 696 6
99 0 701 688 702 83 3 695 .749019607843137 .749019607843137 .749019607843137 14
 696 1208 694 1e-8 690 703 140 24 704 -0 0 703 690 41 81 1 699 2012 513 696 0 69
4 692 705 706 81 1 701 2019 483 703 705 0 707 694 708 83 3 702 .749019607843137
 .749019607843137 .749019607843137 14 703 1239 701 1e-8 696 33 709 24 710 -0 0 3
3 696 41 81 1 705 2014 513 703 0 701 699 711 712 81 1 707 2018 483 33 711 0 0 70
1 713 83 3 708 .752941176470588 .752941176470588 .752941176470588 14 33 1299 707
 1e-8 703 0 714 24 715 -0 0 0 703 41 81 1 711 2016 513 33 0 707 705 0 716 83 3 7
13 .749019607843137 .749019607843137 .749019607843137 82 1 716 999999 15 714 130
1 0 328 33 0 50 715 1322 0 33 710 704 0 +-78e-5 -.016 -.002425 -1 0 0 0 0 1 51 7
10 1249 0 703 558 715 0 --.0207 .002428067794 .00195 0 0 -1 .002 -1 0 0 50 704 1
323 0 696 715 698 0 +-.00968 -.016 -.002425 0 1 0 0 0 1 50 698 1324 0 690 704 69
1 0 +-.00918 -.0155 .002325 0 -1 0 0 0 -1 50 691 1325 0 683 698 685 0 +-78e-5 -.
016 .002325 0 0 -1 -1 0 0 50 685 1326 0 676 691 678 0 +-78e-5 -.016 -.002425 0 0
 -1 -1 0 0 50 678 1327 0 669 685 671 0 +.0028 -.0027 -.002425 0 0 1 0 -1 0 50 67
1 1328 0 662 678 664 0 +.0128 -.0032 .002325 1 0 0 0 0 -1 50 664 1329 0 655 671
 657 0 +.0028 -.0032 .002325 0 0 -1 0 1 0 50 657 1330 0 648 664 650 0 +.0028 -.0
092 -.002425 0 0 1 1 0 0 50 650 1331 0 641 657 643 0 +.0128 -.0092 .002325 1 0 0
 0 0 -1 50 643 1332 0 635 650 636 0 +.0028 -.0092 .002325 0 0 -1 0 1 0 50 636 13
33 0 196 643 630 0 +-.0221 .0028 -.00235 0 0 1 1 0 0 50 630 1336 0 183 636 625 0
 +-.0221 .0028 .00195 1 0 0 0 0 -1 50 625 1337 0 618 630 620 0 +-.0221 .0028 .00
195 0 0 1 1 0 0 50 620 1340 0 611 625 613 0 +-.0193 .0028 -.00235 -1 0 0 0 0 1 5
0 613 1341 0 604 620 606 0 +-.00968 -.016 -.002425 1 0 0 0 1 0 50 606 1342 0 597
 613 599 0 +-.00918 -.0155 -.002425 -1 0 0 0 0 1 50 599 1343 0 590 606 592 0 +.0
128 -.0032 -.002425 0 1 0 -1 0 0 50 592 1344 0 583 599 585 0 +.0028 -.0027 -.002
425 0 -1 0 1 0 0 50 585 1345 0 576 592 578 0 +.0128 -.0092 -.002425 0 1 0 -1 0 0
 50 578 1346 0 569 585 571 0 +.0028 -.0087 -.002425 0 -1 0 1 0 0 50 571 1347 0 5
63 578 564 0 +-.022898212002 -.01185 .00515 0 -1 0 0 0 -1 50 564 1348 0 190 571
 553 0 +-.0222 .0028 .00515 0 -1 0 0 0 -1 50 553 1349 0 471 564 491 0 +-.025 -.0
103 -.00515 1 0 0 0 1 0 50 491 1350 0 477 553 489 0 +0 -.0131 -.00515 0 1 0 -1 0
 0 50 489 1351 0 454 491 529 0 +.0028 0 -.00515 -1 0 0 0 -1 0 50 529 1352 0 462
 489 36 0 +-.025 -.0131 -.00515 0 0 1 1 0 0 50 36 1371 0 449 529 25 0 +-.025 -.0
131 .00515 0 0 1 1 0 0 51 558 615 0 466 493 710 0 --.0222 0 .00515 0 -1548860246
407865e-31 -1 .0028 0 1 -1548860246407865e-31 51 493 558 0 473 482 558 0 --.0222
 -.0103 .00515 0 -1548860246407865e-31 -1 .0028 0 1 -1548860246407865e-31 17 328
 0 714 159 156 160 717 326 0 325 +17 159 0 714 330 328 157 162 232 0 142 -17 156
 0 714 328 330 154 153 229 0 717 -17 717 0 697 718 325 154 328 326 0 315 -17 325
 0 697 717 344 160 719 323 0 0 +15 697 1189 0 344 690 0 17 344 0 697 325 718 720
 721 340 0 0 +17 719 0 334 347 162 720 325 323 0 722 -15 334 1160 0 332 683 0 17
 347 0 334 335 719 723 722 345 0 402 +17 162 0 334 719 143 160 159 232 0 328 +18
 720 874 0 719 724 147 150 ?12 17 722 0 605 721 402 720 347 345 0 344 -15 605 86
7 0 402 597 0 17 721 0 605 725 722 147 344 340 0 718 -17 402 0 605 722 725 723 7
26 400 0 0 +17 725 0 605 402 721 727 350 348 0 726 -18 723 514 0 321 728 727 729
 ?12 17 726 0 490 730 321 727 402 400 0 0 -15 490 504 0 726 477 475 17 730 0 490
 731 726 732 318 316 0 339 -17 321 0 490 726 731 723 335 319 0 347 +18 727 515 0
 318 723 732 733 ?12 17 318 0 684 350 339 727 730 316 0 725 +18 732 516 0 730 72
7 169 734 ?12 29 733 537 0 727 729 735 -.00918000000395 -.0131 -.002424999999475
 29 729 538 0 723 736 733 -.00918000000395 -.0131 .002324999999125 29 735 536 0
 169 733 734 -.0096799999998 -.0131 .002324999999125 18 169 517 0 335 732 167 73
5 ?12 29 734 535 0 732 735 737 -.0096799999998 -.0131 -.002424999999475 29 737 7
95 0 166 734 738 .0128 -.0087 .002325 18 166 785 0 739 163 740 737 ?12 29 738 79
3 0 740 737 741 .0128 -.0087 -.002425 18 740 786 0 295 166 742 738 ?12 29 741 81
6 0 742 738 743 .0128 -.0092 -.002425 18 742 806 0 744 740 745 741 ?12 29 743 81
4 0 745 741 746 .0128 -.0092 .002325 18 745 807 0 292 742 747 743 ?12 29 746 837
 0 747 743 748 .0128 -.0027 .002325 18 747 827 0 749 745 750 746 ?12 29 748 835
 0 750 746 751 .0128 -.0027 -.002425 18 750 828 0 307 747 752 748 ?12 29 751 858
 0 752 748 753 .0128 -.0032 -.002425 18 752 848 0 754 750 724 751 ?12 29 753 856
 0 724 751 755 .0128 -.0032 .002325 18 724 849 0 304 752 720 753 ?12 29 755 882
 0 147 753 150 -.009180000000625 -.015500000000075 -.002425 18 147 875 0 721 720
 138 755 ?12 29 150 881 0 720 755 148 -.009180000000625 -.015500000000075 .00232
5 17 304 0 670 356 365 724 749 302 0 756 +15 670 1089 0 307 662 0 17 356 0 670 3
07 304 752 756 354 0 0 +17 365 0 670 304 307 747 757 363 0 0 +17 749 0 663 368 3
53 747 304 302 0 758 -17 756 0 598 759 760 724 356 354 0 353 -15 598 842 0 760 5
90 0 17 759 0 598 411 756 728 353 351 0 761 -17 760 0 598 756 411 752 359 357 0
 356 -17 353 0 663 749 762 724 759 351 0 0 +15 663 1068 0 353 655 0 17 762 0 663
 353 368 728 301 299 0 759 -17 368 0 663 762 749 763 758 366 0 414 +18 728 435 0
 762 764 723 765 ?12 17 301 0 766 767 761 763 762 299 0 368 +15 766 414 0 767 45
4 453 17 767 0 766 310 301 768 414 412 0 0 -17 761 0 766 301 310 728 411 409 0 0
 -18 763 432 0 301 769 768 770 ?12 18 769 431 0 771 772 763 773 ?12 18 768 433 0
 774 763 764 775 ?12 29 770 460 0 763 776 775 .0028 -.00269999999915 .0023249999
99125 29 776 461 0 772 773 770 .0028 -.009199999998725 -.002424999999475 29 775
 459 0 768 770 765 .0028 -.00269999999915 -.002424999999475 29 765 458 0 728 775
 736 .0028 -.0032000000009 .002324999999125 29 736 457 0 764 765 729 .0028 -.003
2000000009 -.002424999999475 18 764 434 0 310 768 728 736 ?12 17 310 0 766 761 7
67 764 774 308 0 359 +17 774 0 677 362 359 768 310 308 0 777 -17 359 0 677 774 7
54 764 760 357 0 411 +15 677 1110 0 362 669 0 17 754 0 677 359 362 752 307 305 0
 760 -17 411 0 598 760 759 764 761 409 0 0 +17 362 0 677 754 774 750 777 360 0 0
 +17 307 0 670 365 356 750 754 305 0 757 +17 757 0 591 777 758 750 365 363 0 362
 -15 591 821 0 758 583 0 17 777 0 591 414 757 768 362 360 0 767 -17 758 0 591 75
7 414 747 368 366 0 365 -17 414 0 591 758 777 763 767 412 0 0 +18 772 430 0 298
 778 769 776 ?12 29 773 462 0 769 779 776 .0028 -.009199999998725 .0023249999991
25 29 779 463 0 778 780 773 .0028 -.00869999999955 -.002424999999475 18 778 429
 0 781 121 772 779 ?12 29 780 464 0 121 0 779 .0028 -.00869999999955 .0023249999
99125 18 121 428 0 289 118 778 780 ?12 17 289 0 488 782 783 121 771 287 0 384 +1
5 488 413 0 782 454 766 17 782 0 488 298 289 778 420 418 0 0 -17 783 0 488 289 2
98 769 417 415 0 0 -17 771 0 642 371 384 769 289 287 0 784 -17 384 0 642 771 739
 121 785 201 0 420 +15 642 1005 0 371 635 0 17 739 0 642 384 371 166 292 290 0 7
85 -17 785 0 577 786 420 166 384 201 0 383 -17 420 0 577 785 787 121 782 418 0 0
 +15 577 779 0 785 569 0 17 787 0 577 420 786 778 380 378 0 782 -17 786 0 577 78
7 785 740 383 381 0 380 -17 380 0 656 744 781 740 787 378 0 0 +15 656 1047 0 380
 648 0 17 744 0 656 377 380 742 295 293 0 788 -17 781 0 656 380 377 778 298 296
 0 787 -17 377 0 656 781 744 772 788 375 0 417 +17 298 0 488 783 782 772 781 296
 0 377 +17 788 0 584 789 417 742 377 375 0 374 -17 417 0 584 788 784 772 783 415
 0 0 +15 584 800 0 788 576 0 17 784 0 584 417 789 769 371 369 0 783 -17 789 0 58
4 784 788 745 374 372 0 371 -17 371 0 642 739 771 745 784 369 0 0 +17 374 0 649
 295 292 742 789 372 0 0 +15 649 1026 0 295 641 0 17 295 0 649 383 374 740 744 2
93 0 786 +17 292 0 649 374 383 745 739 290 0 789 +17 383 0 649 292 295 166 786 3
81 0 0 +17 335 0 334 332 347 169 321 319 0 336 -17 336 0 612 399 145 169 332 283
 0 731 -15 612 888 0 145 604 0 17 399 0 612 790 336 732 731 397 0 0 +17 145 0 61
2 336 790 131 141 333 0 332 -17 731 0 490 321 730 169 399 397 0 0 -17 790 0 612
 145 399 138 339 337 0 141 -17 339 0 684 318 146 732 790 337 0 399 +15 684 1131
 0 146 676 0 17 146 0 684 339 153 138 338 311 0 790 +17 153 0 684 146 315 151 15
6 229 0 330 +17 338 0 140 142 141 151 146 311 0 0 -15 140 1210 0 142 696 0 17 14
2 0 140 137 338 157 330 231 0 143 -17 330 0 714 156 159 151 142 231 0 338 +17 14
3 0 334 162 332 157 137 144 0 0 -17 315 0 684 153 350 154 718 313 0 0 +17 350 0
 684 315 318 147 725 348 0 0 +17 718 0 697 344 717 147 315 313 0 350 -82 1 712 9
99999 15 709 1240 0 135 703 0 17 135 0 709 185 331 39 130 37 0 180 +17 185 0 709
 126 135 128 180 186 0 174 +17 331 0 709 135 126 127 791 217 0 0 +18 39 964 0 13
5 128 151 27 ?12 16 37 983 0 ?135 181 287 26 0 0 12 17 126 0 709 331 185 124 129
 223 0 791 -17 791 0 619 168 136 124 331 217 0 216 -15 619 916 0 136 611 0 17 16
8 0 619 198 791 167 216 214 0 192 -17 136 0 619 791 198 127 133 197 0 331 -17 21
6 0 172 129 173 124 168 214 0 0 +15 172 936 0 171 618 0 17 173 0 172 216 171 167
 176 194 0 0 +17 198 0 619 136 168 163 192 209 0 0 +17 192 0 189 176 165 167 198
 209 0 173 -17 174 0 178 180 179 128 171 175 0 0 -82 1 706 999999 82 1 700 99999
9 82 1 693 999999 82 1 687 999999 82 1 680 999999 82 1 673 999999 82 1 666 99999
9 82 1 659 999999 82 1 652 999999 82 1 645 999999 82 1 638 999999 82 1 632 99999
9 82 1 627 999999 82 1 622 999999 82 1 615 999999 82 1 608 999999 82 1 601 99999
9 82 1 594 999999 82 1 587 999999 82 1 580 999999 82 1 573 999999 15 570 680 0 7
92 563 0 17 792 0 570 441 793 75 49 260 0 0 -17 441 0 570 794 792 94 795 263 0 0
 +17 793 0 570 792 794 59 64 199 0 49 -17 49 0 48 45 93 59 792 260 0 0 +17 93 0
 48 49 42 75 796 235 0 795 +17 42 0 48 93 45 46 797 29 0 796 +17 796 0 798 432 7
95 46 93 235 0 0 -17 795 0 798 796 799 75 441 263 0 792 -15 798 191 0 799 462 46
0 17 799 0 798 795 432 94 99 261 0 441 -17 432 0 798 799 796 61 52 241 0 0 +17 9
9 0 506 430 96 61 799 261 0 800 +15 506 282 0 99 502 0 17 430 0 506 801 99 53 80
0 428 0 0 +17 96 0 506 99 801 94 794 279 0 799 +17 800 0 500 52 802 61 430 428 0
 432 -15 500 48 0 800 35 0 17 52 0 500 797 800 46 432 241 0 42 -17 802 0 500 800
 797 53 51 237 0 430 -17 797 0 500 802 52 30 42 29 0 0 -17 51 0 803 50 67 30 802
 237 0 797 +15 803 69 0 50 449 447 17 50 0 803 64 51 59 45 43 0 793 -17 67 0 803
 51 64 53 801 242 0 802 +17 64 0 803 67 50 62 793 199 0 794 +17 801 0 506 96 430
 62 67 242 0 0 -17 794 0 570 793 441 62 96 279 0 801 -82 1 566 999999 82 1 560 9
99999 82 1 555 999999 82 1 550 999999 79 14 539 SWEntUnchanged82 1 535 999999 15
 533 68 0 240 449 803 17 240 0 533 240 240 0 804 238 0 0 +17 804 0 508 804 804 0
 240 238 0 0 -15 508 1465 0 804 505 805 15 805 312 0 259 505 0 17 259 0 805 259
 259 0 806 257 0 0 +17 806 0 528 806 806 0 259 257 0 0 -15 528 190 0 806 462 798
 82 1 531 999999 82 1 525 999999 82 1 521 999999 83 3 518 .752941176470588 .7529
41176470588 .752941176470588 82 1 516 999999 79 15 512 SDL/TYSA_COLOUR83 3 499 .
752941176470588 .752941176470588 .752941176470588 83 3 487 .752941176470588 .752
941176470588 .752941176470588 17 105 0 470 440 468 97 390 388 0 463 -141 206 205
 206 206 203 19 34 5 0 12 0 28 24 S74 20 32 3 0 711 495 21 0 0 0 0 0 0 0 0 0 0 0
 0 0 0 0 0 0 80 1 5 807 808 8017 0 0 0 0 0 0 0 0 0 TTTTTTTTTTTTTF3 84 14 31 V_10
2_1A4_BASE79 13 808 SDL/TYSA_NAME81 1 10 419 5 7 0 0 0 0 809 70 11 0 4 T7 0 0 3
 20 1 810 810 13 13 208 0 7 0 811 0 0 812 0 50 14 258 0 813 814 0 0 +5e-4 .0021
 -.00215 -1 0 0 0 -1 0 30 15 271 0 815 816 0 0 +0 .001668134354 .00215 -.9893649
35306878 .145454545426459 0 29 16 273 0 817 818 0 -.026780262994 .005605317532 .
00215 19 17 209 0 7 812 0 819 V16 18 21 0 ?820 0 821 822 0 0 7 18 19 17 0 823 0
 824 825 ?7 17 823 0 826 820 827 19 828 829 0 830 +18 824 13 0 831 19 832 833 ?7
 29 825 262 0 19 834 835 5e-4 .0021000000005003 -.00215 29 834 261 0 836 837 825
 -.02670753572100765 .00609999999994799 -.00215 29 835 265 0 838 825 839 3192146
52939182e-35 .001668134353670165 -.00215 18 838 57 0 840 841 842 835 ?7 29 839 2
66 0 841 835 843 -.02678026299375105 .00560531753369332 -.00215 18 841 56 0 844
 836 838 839 ?7 29 843 269 0 845 839 818 -.026707535721 .0061 .00215 18 845 83 0
 846 842 817 843 ?7 29 818 272 0 847 843 16 0 .001668134354 .00215 18 847 108 0
 848 817 849 818 ?7 17 848 0 850 851 852 847 853 854 0 855 -18 817 107 0 856 845
 847 16 ?7 18 849 109 0 853 847 0 837 ?7 17 853 0 857 858 859 849 848 854 0 852
 +29 837 118 0 849 860 834 2205059445041685e-27 -542101086242752e-34 .00215 29 8
60 70 0 842 861 837 2205059445041685e-27 0 -.00215 18 842 58 0 862 838 845 860 ?
7 29 861 41 0 832 863 860 5e-4 0 .00215 18 832 8 0 858 824 864 861 ?7 29 863 40
 0 864 833 861 5e-4 0 -.00215 18 864 6 0 865 832 836 863 ?7 29 833 37 0 824 0 86
3 5e-4 .0021000000005003 .00215 17 865 0 866 830 867 864 868 869 0 870 -18 836 5
5 0 827 864 841 834 ?7 17 827 0 826 823 871 836 844 872 0 873 +15 826 48 0 827 8
74 0 17 871 0 826 827 840 841 875 876 0 0 +17 844 0 877 856 873 841 827 872 0 87
8 -16 872 170 0 ?827 879 880 881 0 0 7 17 873 0 877 844 846 836 882 883 0 828 +1
5 877 169 0 856 884 0 17 846 0 877 873 856 845 885 886 0 882 +17 882 0 887 831 8
28 845 873 883 0 888 -16 883 79 0 ?873 889 890 891 0 0 7 17 828 0 887 882 892 83
6 823 829 0 0 -15 887 77 0 882 893 0 17 892 0 887 828 831 19 894 821 0 0 +16 829
 49 0 ?823 869 876 895 0 0 7 16 869 9 0 ?868 896 829 897 0 0 7 16 876 51 0 ?871
 829 889 898 0 0 7 30 895 260 0 829 899 898 0 +-.02670753570969035 .006099999998
231 -.00215 .989364935308675 -.145454545414234 0 30 899 257 0 880 900 895 0 +0 .
000834067177 -.00215 0 1 0 30 898 264 0 876 895 816 0 +882023761753642e-26 .0016
681343520436 -.00215 -.989364935284976 .1454545455754296 0 30 816 268 0 886 898
 15 0 +-.026780262994 .005605317532 .00215 .1454545458881114 .989364935239006 0
 16 886 101 0 ?846 890 815 816 0 0 7 16 890 80 0 ?888 883 886 901 0 0 7 16 815 1
02 0 ?902 886 903 15 0 0 7 17 902 0 904 878 855 817 859 815 0 0 +16 903 104 0 ?9
05 815 906 907 0 0 7 17 905 0 908 909 868 849 858 903 0 0 +16 906 131 0 ?852 903
 910 911 0 0 7 30 907 112 0 903 912 911 0 +-.013221972286 0 .00215 -1 0 0 30 912
 63 0 889 897 907 0 +-.013221972286 0 -.00215 -1 0 0 30 911 137 0 906 907 913 0
 +0 0 0 0 0 1 30 913 222 0 879 911 891 0 +-.026780262994 .005605317532 0 0 0 1 1
6 879 152 0 ?856 910 872 913 0 0 7 30 891 226 0 883 913 901 0 +-.026707535721 .0
061 0 0 0 -1 30 901 228 0 890 891 914 0 +-.0131037678605 .0041 .00215 -.98936493
5302883 .1454545454536326 0 30 914 235 0 854 901 915 0 +0 .000834067177 .00215 0
 -1 0 16 854 193 0 ?853 880 0 914 0 0 7 30 915 237 0 910 914 881 0 +0 .001668134
354 0 0 0 -1 16 910 150 0 ?851 906 879 915 0 0 7 30 881 246 0 872 915 822 0 +-.0
267438993575 .005852658766 -.00215 .1454545458881114 .989364935239006 0 30 822 2
48 0 18 881 900 0 +5e-4 .00105 -.00215 0 -1 0 30 900 250 0 821 822 899 0 +5e-4 .
0021 0 0 0 -1 16 821 18 0 ?892 18 896 900 0 0 7 16 896 14 0 ?916 821 869 917 0 0
 7 17 916 0 857 888 858 824 867 896 0 0 +30 917 36 0 896 0 897 0 +5e-4 .00105 .0
0215 0 1 0 30 897 39 0 869 917 912 0 +5e-4 0 0 0 0 1 15 857 98 0 888 918 0 17 88
8 0 857 885 916 845 831 890 0 0 +17 858 0 857 916 853 832 905 903 0 867 -17 867
 0 866 865 894 832 916 896 0 868 -15 866 7 0 894 813 0 17 894 0 866 867 830 824
 892 821 0 916 -17 868 0 908 905 870 832 865 869 0 0 +15 908 127 0 868 919 0 17
 870 0 908 868 909 864 920 889 0 820 -17 909 0 908 870 905 842 852 906 0 920 -17
 920 0 826 840 820 842 870 889 0 0 +16 889 53 0 ?920 876 883 912 0 0 7 17 820 0
 826 920 823 864 830 18 0 0 +17 830 0 866 894 865 19 820 18 0 892 -17 840 0 826
 871 920 838 862 880 0 851 +17 862 0 850 852 851 842 840 880 0 909 -16 880 191 0
 ?840 872 854 899 0 0 7 17 851 0 850 862 848 838 855 910 0 875 +15 850 190 0 852
 811 0 17 855 0 904 902 875 847 851 910 0 859 -17 875 0 904 855 878 838 871 876
 0 0 -15 904 148 0 855 921 0 17 878 0 904 875 902 841 856 879 0 871 -17 856 0 87
7 846 844 817 878 879 0 885 +17 885 0 857 859 888 817 846 886 0 902 -17 859 0 85
7 853 885 847 902 815 0 0 -14 921 146 922 1e-8 919 884 904 13 923 -0 0 884 919 8
19 81 1 922 413 483 921 924 0 925 926 927 14 919 125 926 1e-8 918 921 908 13 928
 -0 0 921 918 819 14 884 167 925 1e-8 921 811 877 13 929 -0 0 811 921 819 50 923
 213 0 921 929 928 0 +0 .001668134354 -.00215 .145454545426459 .989364935306878
 0 -.989364935306878 .145454545426459 0 13 819 3 0 0 0 0 0 0 17 813 14 813 2 930
 1e-8 0 874 866 13 14 -0 0 874 0 819 81 1 930 418 483 813 931 0 932 0 933 14 874
 46 932 1e-8 813 893 826 13 814 +0 0 893 813 819 81 1 932 417 483 874 934 0 935
 930 936 14 893 75 935 1e-8 874 918 887 13 937 -0 0 918 874 819 50 814 239 0 874
 937 14 0 +5e-4 0 -.00215 0 0 -1 -1 0 0 50 937 238 0 893 938 814 0 +-.0267075357
21 .0061 -.00215 -.1454545454536326 -.989364935302883 0 .989364935302883 -.14545
45454536326 0 50 938 215 0 918 928 937 0 +5e-4 0 .00215 0 0 -1 -1 0 0 14 918 96
 939 1e-8 893 919 857 13 938 -0 0 919 893 819 50 928 214 0 919 923 938 0 +0 0 -.
00215 0 1 0 0 0 1 81 1 939 415 483 918 940 0 926 935 941 81 1 940 407 513 918 0
 939 942 943 944 81 1 926 414 483 919 945 0 922 939 946 81 1 935 416 483 893 942
 0 939 932 947 83 3 941 .749019607843137 .749019607843137 .749019607843137 81 1
 942 405 513 893 0 935 934 940 948 83 3 947 .749019607843137 .749019607843137 .7
49019607843137 81 1 934 403 513 874 0 932 931 942 949 82 1 948 999999 81 1 931 4
01 513 813 0 930 950 934 951 82 1 949 999999 81 1 950 399 513 884 0 925 945 931
 952 82 1 951 999999 81 1 925 412 483 884 950 0 953 922 954 81 1 945 397 513 919
 0 926 924 950 955 82 1 952 999999 81 1 924 395 513 921 0 922 0 945 956 82 1 955
 999999 82 1 956 999999 81 1 953 411 483 811 943 0 0 925 957 83 3 954 .749019607
843137 .749019607843137 .749019607843137 14 811 188 953 1e-8 884 0 850 13 958 -0
 0 0 884 819 81 1 943 409 513 811 0 953 940 0 959 83 3 957 .749019607843137 .749
019607843137 .749019607843137 82 1 959 999999 50 958 211 0 811 0 929 0 +0 0 -.00
215 1 0 0 0 1 0 50 929 212 0 884 958 923 0 +-.026780262994 .005605317532 -.00215
 .989364935239006 -.1454545458881114 0 .1454545458881114 .989364935239006 0 83 3
 946 .749019607843137 .749019607843137 .749019607843137 82 1 944 999999 83 3 936
 .749019607843137 .749019607843137 .749019607843137 83 3 933 .749019607843137 .7
49019607843137 .749019607843137 83 3 927 .749019607843137 .749019607843137 .7490
19607843137 17 852 0 850 848 862 849 909 906 0 905 +17 831 0 887 892 882 824 888
 890 0 894 -19 812 5 0 7 0 17 13 S74 20 810 3 0 943 930 10 0 0 0 0 0 0 0 0 0 0 0
 0 0 0 0 0 0 84 18 809 V_102_1A4_ACTUATOR74 20 6 1 0 2 0 0 0 0 0 0 0 0 0 0 0 0 0
 0 0 0 0 0 0 1 0 
